<svg version="1.1" xmlns="http://www.w3.org/2000/svg" viewBox="0 0 2167.391462246789 988.2285714285719" width="4334.782924493578" height="1976.4571428571437">
  <!-- svg-source:excalidraw -->
  
  <defs>
    <style class="style-fonts">
      @font-face {
        font-family: "Virgil";
        src: url("https://excalidraw.com/Virgil.woff2");
      }
      @font-face {
        font-family: "Cascadia";
        src: url("https://excalidraw.com/Cascadia.woff2");
      }
      @font-face {
        font-family: "Assistant";
        src: url("https://excalidraw.com/Assistant-Regular.woff2");
      }
    </style>
    
  </defs>
  <rect x="0" y="0" width="2167.391462246789" height="988.2285714285719" fill="#ffffff"></rect><g stroke-linecap="round" transform="translate(63.105747961074826 441.08571428571474) rotate(0 39.28571428571428 37.85714285714283)"><path d="M22.1 4.22 C28.54 1.05, 39.45 -0.16, 46.98 1.33 C54.5 2.81, 61.98 7.68, 67.24 13.13 C72.5 18.58, 77.53 26.73, 78.53 34.02 C79.54 41.31, 77.23 50.38, 73.27 56.87 C69.32 63.35, 61.95 69.91, 54.83 72.93 C47.71 75.94, 38.04 76.4, 30.54 74.96 C23.03 73.52, 14.84 69.62, 9.8 64.31 C4.77 59, 1.01 50.6, 0.33 43.1 C-0.35 35.6, 1.53 26.03, 5.71 19.31 C9.88 12.59, 21.8 5.63, 25.37 2.77 C28.95 -0.09, 26.95 1.42, 27.17 2.13 M44.71 1.53 C51.99 2.01, 61.48 5.54, 67.04 10.55 C72.6 15.57, 76.77 24.31, 78.09 31.6 C79.41 38.89, 78.37 47.77, 74.96 54.27 C71.55 60.77, 64.19 67.14, 57.64 70.62 C51.1 74.1, 43.05 76.03, 35.7 75.15 C28.35 74.27, 19.48 70.38, 13.56 65.33 C7.63 60.28, 2 51.86, 0.14 44.83 C-1.72 37.79, -1.2 29.58, 2.39 23.12 C5.99 16.66, 14.6 9.99, 21.72 6.09 C28.84 2.18, 41.28 0.56, 45.12 -0.32 C48.96 -1.21, 44.74 -0.15, 44.76 0.76" stroke="#1e1e1e" stroke-width="2" fill="none"></path></g><g stroke-linecap="round"><g transform="translate(105.9628908182176 518.2285714285719) rotate(0 -47.5285696837426 32.995452857797204)"><path d="M0.91 0.73 C-14.74 11.72, -78.88 54.1, -94.76 64.84 M-0.08 0.07 C-15.84 11.28, -80.11 54.9, -95.96 65.93" stroke="#1e1e1e" stroke-width="2" fill="none"></path></g></g><mask></mask><g stroke-linecap="round"><g transform="translate(104.53431938964616 518.2285714285719) rotate(0 37.892152768808614 36.9766858207887)"><path d="M-0.96 0.98 C11.45 12.93, 61.89 60.15, 74.61 72.27 M0.73 0.45 C13.48 12.5, 64.46 61.61, 76.75 73.5" stroke="#1e1e1e" stroke-width="2" fill="none"></path></g></g><mask></mask><g transform="translate(60.248605103931936 375.5542857142859) rotate(0 45.58035714285717 23.33714285714285)"><text x="0" y="37.558214285714286" font-family="Cascadia, Segoe UI Emoji" font-size="38.8952380952381px" fill="#1e1e1e" text-anchor="start" style="white-space: pre;" direction="ltr" dominant-baseline="alphabetic">User</text></g><g stroke-linecap="round" transform="translate(458.8200336753606 249.65714285714319) rotate(0 201.42857142857156 255)"><path d="M32 0 C109.49 1.14, 184.93 -1.11, 370.86 0 M32 0 C125.52 -1.74, 219.58 -2.42, 370.86 0 M370.86 0 C392.55 -0.56, 401.43 11.7, 402.86 32 M370.86 0 C390.73 1.72, 403.38 9.03, 402.86 32 M402.86 32 C405.06 204.4, 404.3 378.26, 402.86 478 M402.86 32 C400.99 201.46, 400.92 370.91, 402.86 478 M402.86 478 C402.64 500.54, 392.67 509.75, 370.86 510 M402.86 478 C400.76 497.64, 393.01 509.68, 370.86 510 M370.86 510 C277.93 509.5, 183.79 508.98, 32 510 M370.86 510 C277.38 511.29, 184.29 510.51, 32 510 M32 510 C12.44 509.43, -1.74 500.64, 0 478 M32 510 C11.19 509.24, -0.6 497.14, 0 478 M0 478 C0.48 317.89, 1.27 156.17, 0 32 M0 478 C-1.43 383.99, -1.18 290.78, 0 32 M0 32 C0.99 11.65, 9.86 1.36, 32 0 M0 32 C1.34 10.29, 8.78 -1.36, 32 0" stroke="#1e1e1e" stroke-width="2" fill="none"></path></g><g transform="translate(583.1057479610747 269.65714285714307) rotate(0 82.03125 12)"><text x="0" y="19.3125" font-family="Cascadia, Segoe UI Emoji" font-size="20px" fill="#1e1e1e" text-anchor="start" style="white-space: pre;" direction="ltr" dominant-baseline="alphabetic">Express Server</text></g><g stroke-linecap="round" transform="translate(507.39146224678905 329.6571428571433) rotate(0 149.28571428571428 37.14285714285717)"><path d="M18.57 0 C95.69 0.29, 174.85 0.91, 280 0 M18.57 0 C79.48 0.43, 139.61 1.41, 280 0 M280 0 C292.04 -0.11, 296.96 4.46, 298.57 18.57 M280 0 C292.33 1.34, 300.08 6.23, 298.57 18.57 M298.57 18.57 C300.14 30.08, 297.12 42.72, 298.57 55.71 M298.57 18.57 C299.32 32.19, 299.59 45.36, 298.57 55.71 M298.57 55.71 C296.65 68.9, 290.43 73.91, 280 74.29 M298.57 55.71 C299.55 67.88, 291.2 74.45, 280 74.29 M280 74.29 C181.46 74.65, 84.61 72.45, 18.57 74.29 M280 74.29 C215.79 73.64, 149.37 73.8, 18.57 74.29 M18.57 74.29 C5.46 73.6, -1.53 67.41, 0 55.71 M18.57 74.29 C4.8 76.06, 0.14 67.16, 0 55.71 M0 55.71 C1.47 43.02, -2.27 30.39, 0 18.57 M0 55.71 C-0.16 40.83, -0.08 28.68, 0 18.57 M0 18.57 C-1.11 4.56, 4.87 -0.96, 18.57 0 M0 18.57 C1.62 4.49, 6.61 1.68, 18.57 0" stroke="#1e1e1e" stroke-width="2" fill="none"></path></g><g transform="translate(598.0834265325034 354.8000000000005) rotate(0 58.59375 12)"><text x="58.59375" y="19.3125" font-family="Cascadia, Segoe UI Emoji" font-size="20px" fill="#1e1e1e" text-anchor="middle" style="white-space: pre;" direction="ltr" dominant-baseline="alphabetic">CatsRouter</text></g><g stroke-linecap="round" transform="translate(507.39146224678905 421.08571428571474) rotate(0 149.28571428571428 37.14285714285717)"><path d="M18.57 0 C110.19 1.56, 200.27 1.06, 280 0 M18.57 0 C87.44 -1.24, 156.98 -1.07, 280 0 M280 0 C292.34 2, 299.09 6.34, 298.57 18.57 M280 0 C294.58 -0.59, 298.97 4.73, 298.57 18.57 M298.57 18.57 C298.58 29.26, 300.32 40.06, 298.57 55.71 M298.57 18.57 C299.36 28.44, 298.37 39.1, 298.57 55.71 M298.57 55.71 C299.26 66.45, 292.5 72.52, 280 74.29 M298.57 55.71 C299.49 66.34, 292.11 73.87, 280 74.29 M280 74.29 C206.59 77.27, 136.1 76.35, 18.57 74.29 M280 74.29 C198.45 75.55, 118.36 75.6, 18.57 74.29 M18.57 74.29 C8.12 73.48, -1.18 67.05, 0 55.71 M18.57 74.29 C8.38 74.22, 0.13 66.37, 0 55.71 M0 55.71 C1.63 46.16, 1.29 39.06, 0 18.57 M0 55.71 C0.45 42.43, 0.78 28.13, 0 18.57 M0 18.57 C-1.41 7.03, 5.97 1.77, 18.57 0 M0 18.57 C0.38 8.29, 4.04 1.16, 18.57 0" stroke="#1e1e1e" stroke-width="2" fill="none"></path></g><g transform="translate(609.8021765325034 446.22857142857185) rotate(0 46.875 12)"><text x="46.875" y="19.3125" font-family="Cascadia, Segoe UI Emoji" font-size="20px" fill="#1e1e1e" text-anchor="middle" style="white-space: pre;" direction="ltr" dominant-baseline="alphabetic">Router 2</text></g><g stroke-linecap="round" transform="translate(511.67717653250327 511.08571428571463) rotate(0 149.28571428571428 37.14285714285717)"><path d="M18.57 0 C113.7 -1.88, 206.31 -3.07, 280 0 M18.57 0 C81.2 0.57, 141.78 1.45, 280 0 M280 0 C292.88 1.76, 298.17 7.32, 298.57 18.57 M280 0 C291.28 -0.24, 297.22 4.73, 298.57 18.57 M298.57 18.57 C297.71 29.79, 298.33 37.92, 298.57 55.71 M298.57 18.57 C298 29.35, 297.98 40.15, 298.57 55.71 M298.57 55.71 C297.31 67.8, 293.31 75.42, 280 74.29 M298.57 55.71 C298.27 69.57, 290.62 76.18, 280 74.29 M280 74.29 C222.96 72.68, 164.15 72.14, 18.57 74.29 M280 74.29 C202.33 73.45, 123.01 73.36, 18.57 74.29 M18.57 74.29 C5.56 73.52, 1.17 67.32, 0 55.71 M18.57 74.29 C3.94 74.82, -1.67 65.82, 0 55.71 M0 55.71 C-1.26 44.08, -1.41 29.72, 0 18.57 M0 55.71 C0.43 42.82, 0.61 27.89, 0 18.57 M0 18.57 C0.15 5.5, 4.9 0.83, 18.57 0 M0 18.57 C0.35 4.91, 4.68 1.39, 18.57 0" stroke="#1e1e1e" stroke-width="2" fill="none"></path></g><g transform="translate(643.3847658182176 536.2285714285719) rotate(0 17.578125 12)"><text x="17.578125" y="19.3125" font-family="Cascadia, Segoe UI Emoji" font-size="20px" fill="#1e1e1e" text-anchor="middle" style="white-space: pre;" direction="ltr" dominant-baseline="alphabetic">...</text></g><g stroke-linecap="round" transform="translate(510.2486051039318 618.2285714285716) rotate(0 149.28571428571428 37.14285714285711)"><path d="M18.57 0 C88.86 0.61, 161.65 0.95, 280 0 M18.57 0 C120.72 -1.13, 223.02 -1.59, 280 0 M280 0 C294.06 -1.48, 297.41 4.97, 298.57 18.57 M280 0 C292.5 -0.94, 299.9 8.14, 298.57 18.57 M298.57 18.57 C299.51 30.69, 298.91 40.08, 298.57 55.71 M298.57 18.57 C299.09 31.28, 297.82 42.97, 298.57 55.71 M298.57 55.71 C298.18 67.99, 293.09 74.1, 280 74.29 M298.57 55.71 C298.86 66.72, 291.36 73.68, 280 74.29 M280 74.29 C176.75 75.43, 76.52 73.24, 18.57 74.29 M280 74.29 C188.05 75.96, 97.2 74.75, 18.57 74.29 M18.57 74.29 C6.49 75.67, -0.28 66.91, 0 55.71 M18.57 74.29 C4.72 72.78, 1.51 69.64, 0 55.71 M0 55.71 C-1.63 47.65, 1.87 38.12, 0 18.57 M0 55.71 C0.77 45.26, 0.39 33.94, 0 18.57 M0 18.57 C0.29 6.42, 6.1 -1.43, 18.57 0 M0 18.57 C-1.85 7.23, 4.82 0.38, 18.57 0" stroke="#1e1e1e" stroke-width="2" fill="none"></path></g><g transform="translate(612.659319389646 643.3714285714287) rotate(0 46.875 12)"><text x="46.875" y="19.3125" font-family="Cascadia, Segoe UI Emoji" font-size="20px" fill="#1e1e1e" text-anchor="middle" style="white-space: pre;" direction="ltr" dominant-baseline="alphabetic">Router N</text></g><g mask="url(#mask-pZNWmaZj9_Jfk1sbKM2e3)" stroke-linecap="round"><g transform="translate(187.39146224678893 465.37142857142885) rotate(0 141.1268570392473 -47.07525041988913)"><path d="M-0.13 -0.22 C47.06 -15.45, 236.87 -76.83, 283.91 -92.17 M-1.66 -1.38 C45.4 -16.88, 235.8 -78.44, 283.51 -93.93" stroke="#1e1e1e" stroke-width="2" fill="none"></path></g><g transform="translate(187.39146224678893 465.37142857142885) rotate(0 141.1268570392473 -47.07525041988913)"><path d="M263.8 -78.56 C270.73 -82.39, 279.42 -90.98, 283.51 -93.93 M263.8 -78.56 C271.11 -84.58, 277.6 -90.01, 283.51 -93.93" stroke="#1e1e1e" stroke-width="2" fill="none"></path></g><g transform="translate(187.39146224678893 465.37142857142885) rotate(0 141.1268570392473 -47.07525041988913)"><path d="M258.53 -94.83 C267.27 -92.72, 277.88 -95.38, 283.51 -93.93 M258.53 -94.83 C267.65 -95.17, 275.97 -94.95, 283.51 -93.93" stroke="#1e1e1e" stroke-width="2" fill="none"></path></g></g><mask id="mask-pZNWmaZj9_Jfk1sbKM2e3"><rect x="0" y="0" fill="#fff" width="570.2486051039319" height="658.2285714285716"></rect><rect x="235.0700336753605" y="406.9428571428574" fill="#000" width="187.5" height="24" opacity="1"></rect></mask><g transform="translate(235.0700336753605 406.9428571428575) rotate(0 93.44828561067575 11.353321008682315)"><text x="93.75" y="19.3125" font-family="Cascadia, Segoe UI Emoji" font-size="20px" fill="#1e1e1e" text-anchor="middle" style="white-space: pre;" direction="ltr" dominant-baseline="alphabetic">example.com/cats</text></g><g mask="url(#mask-Nup8vd7kQMq6MdG5-ZnpI)" stroke-linecap="round"><g transform="translate(458.8200336753606 432.51428571428596) rotate(0 -129.74021927613245 48.71565288671428)"><path d="M-0.68 0.73 C-44.02 16.84, -216.68 81.34, -260.3 97.36 M1.17 0.07 C-42.21 15.73, -217.12 79.02, -260.65 95.36" stroke="#1e1e1e" stroke-width="2" fill="none"></path></g><g transform="translate(458.8200336753606 432.51428571428596) rotate(0 -129.74021927613245 48.71565288671428)"><path d="M-241.55 79.23 C-245.62 85.55, -251.85 86.58, -260.65 95.36 M-241.55 79.23 C-247.16 84.52, -252.75 88.72, -260.65 95.36" stroke="#1e1e1e" stroke-width="2" fill="none"></path></g><g transform="translate(458.8200336753606 432.51428571428596) rotate(0 -129.74021927613245 48.71565288671428)"><path d="M-235.65 95.28 C-241.48 97.05, -249.36 93.56, -260.65 95.36 M-235.65 95.28 C-242.81 96.05, -250.05 95.77, -260.65 95.36" stroke="#1e1e1e" stroke-width="2" fill="none"></path></g></g><mask id="mask-Nup8vd7kQMq6MdG5-ZnpI"><rect x="0" y="0" fill="#fff" width="820.2486051039323" height="629.6571428571432"></rect><rect x="246.07449796107477" y="469.0857142857145" fill="#000" width="164.0625" height="24" opacity="1"></rect></mask><g transform="translate(246.07449796107477 469.08571428571463) rotate(0 83.00531643815339 12.144224315285726)"><text x="82.03125" y="19.3125" font-family="Cascadia, Segoe UI Emoji" font-size="20px" fill="#1e1e1e" text-anchor="middle" style="white-space: pre;" direction="ltr" dominant-baseline="alphabetic">requested data</text></g><g transform="translate(277.39146224678905 371.0857142857145) rotate(0 52.734375 12)"><text x="0" y="19.3125" font-family="Cascadia, Segoe UI Emoji" font-size="20px" fill="#1e1e1e" text-anchor="start" style="white-space: pre;" direction="ltr" dominant-baseline="alphabetic">Cat List </text></g><g stroke-linecap="round"><g transform="translate(203.10574796107483 116.8000000000003) rotate(0 -2.6781010791127073 345.66852443574794)"><path d="M-0.32 -1.01 C-0.99 114.25, -4.29 576.83, -5.04 692.35" stroke="#1e1e1e" stroke-width="4.5" fill="none" stroke-dasharray="1.5 10"></path></g></g><mask></mask><g transform="translate(29.056501309289047 166.32000000000016) rotate(0 68.3349609375 23.33714285714285)"><text x="0" y="37.558214285714286" font-family="Cascadia, Segoe UI Emoji" font-size="38.8952380952381px" fill="#1e1e1e" text-anchor="start" style="white-space: pre;" direction="ltr" dominant-baseline="alphabetic">Client</text></g><g transform="translate(594.7707870235748 157.7485714285716) rotate(0 68.3349609375 23.33714285714285)"><text x="0" y="37.558214285714286" font-family="Cascadia, Segoe UI Emoji" font-size="38.8952380952381px" fill="#1e1e1e" text-anchor="start" style="white-space: pre;" direction="ltr" dominant-baseline="alphabetic">Server</text></g><g stroke-linecap="round" transform="translate(1214.5343193896465 285.37142857142896) rotate(0 147.857142857143 30.714285714285722)"><path d="M15.36 0 C120.21 -0.97, 223.12 -1.14, 280.36 0 M15.36 0 C99.52 0.1, 182.94 -0.38, 280.36 0 M280.36 0 C290.6 -1.16, 295.11 5.49, 295.71 15.36 M280.36 0 C290.97 1.87, 294.21 4.96, 295.71 15.36 M295.71 15.36 C294.83 24.89, 296.24 37.23, 295.71 46.07 M295.71 15.36 C295.12 25.74, 295.35 35.73, 295.71 46.07 M295.71 46.07 C294.97 55.06, 289.96 60.27, 280.36 61.43 M295.71 46.07 C296.57 54.8, 290 62.76, 280.36 61.43 M280.36 61.43 C195.28 62.43, 113.25 60.51, 15.36 61.43 M280.36 61.43 C225.28 63.53, 169.42 64.08, 15.36 61.43 M15.36 61.43 C3.18 61.3, 1.72 55.71, 0 46.07 M15.36 61.43 C3.05 59.31, 2 58.32, 0 46.07 M0 46.07 C-1.05 36.74, -0.77 29.71, 0 15.36 M0 46.07 C-0.87 37.95, 0.4 31.13, 0 15.36 M0 15.36 C1.13 6.9, 6.81 0.19, 15.36 0 M0 15.36 C2.03 3.35, 7 -0.03, 15.36 0" stroke="#1e1e1e" stroke-width="2" fill="none"></path></g><g transform="translate(1247.5477122467896 299.2857142857147) rotate(0 114.84375 16.80000000000001)"><text x="114.84375" y="27.0375" font-family="Cascadia, Segoe UI Emoji" font-size="28px" fill="#1e1e1e" text-anchor="middle" style="white-space: pre;" direction="ltr" dominant-baseline="alphabetic">CatsController</text></g><g stroke-linecap="round" transform="translate(1215.962890818218 362.5142857142863) rotate(0 147.857142857143 21.80000000000001)"><path d="M10.9 0 C114.07 -0.91, 214.85 -1.1, 284.81 0 M10.9 0 C105.34 -1.84, 198.59 -2.06, 284.81 0 M284.81 0 C290.63 0.25, 296.85 4.25, 295.71 10.9 M284.81 0 C291.56 0.21, 298 3.48, 295.71 10.9 M295.71 10.9 C294.52 18.51, 295.81 23.84, 295.71 32.7 M295.71 10.9 C296.49 16.07, 295.08 19.63, 295.71 32.7 M295.71 32.7 C296.64 40.33, 290.17 44.31, 284.81 43.6 M295.71 32.7 C293.68 40.06, 289.92 44.23, 284.81 43.6 M284.81 43.6 C190.11 44.45, 93.97 42.91, 10.9 43.6 M284.81 43.6 C178.2 45.06, 71.44 45.58, 10.9 43.6 M10.9 43.6 C4.37 43.51, -1.79 41.66, 0 32.7 M10.9 43.6 C4.73 41.83, -0.81 41.52, 0 32.7 M0 32.7 C1.72 25.06, 1.65 20.84, 0 10.9 M0 32.7 C-0.78 24.49, -0.47 17.02, 0 10.9 M0 10.9 C-1.33 3.19, 4.31 0.18, 10.9 0 M0 10.9 C-1.15 5.01, 4.34 0.85, 10.9 0" stroke="#1e1e1e" stroke-width="2" fill="none"></path></g><g transform="translate(1273.5856586753612 367.5142857142863) rotate(0 90.234375 16.80000000000001)"><text x="90.234375" y="27.0375" font-family="Cascadia, Segoe UI Emoji" font-size="28px" fill="#1e1e1e" text-anchor="middle" style="white-space: pre;" direction="ltr" dominant-baseline="alphabetic">Controller2</text></g><g stroke-linecap="round" transform="translate(1214.5343193896463 421.08571428571486) rotate(0 147.857142857143 21.80000000000001)"><path d="M10.9 0 C100.73 1.15, 192.06 0.75, 284.81 0 M10.9 0 C104.36 -0.72, 198.63 -0.9, 284.81 0 M284.81 0 C290.74 -1.77, 296.34 5.1, 295.71 10.9 M284.81 0 C293.58 1.01, 297 5.56, 295.71 10.9 M295.71 10.9 C296.1 17.39, 295.1 20.94, 295.71 32.7 M295.71 10.9 C296.46 15.68, 294.81 21.33, 295.71 32.7 M295.71 32.7 C296.04 41.93, 292.19 43.47, 284.81 43.6 M295.71 32.7 C297.07 40.68, 293.42 41.39, 284.81 43.6 M284.81 43.6 C184.84 41.58, 84 41.81, 10.9 43.6 M284.81 43.6 C175.83 41.54, 65.15 42.3, 10.9 43.6 M10.9 43.6 C2.68 44.75, 1.76 40.78, 0 32.7 M10.9 43.6 C2.66 41.84, 0 41.89, 0 32.7 M0 32.7 C1.17 26.81, 1.03 16.56, 0 10.9 M0 32.7 C-0.02 27.33, 0.7 22.66, 0 10.9 M0 10.9 C1.61 2.4, 3.52 0.86, 10.9 0 M0 10.9 C0.44 1.59, 2.38 -0.91, 10.9 0" stroke="#1e1e1e" stroke-width="2" fill="none"></path></g><g transform="translate(1337.7820872467892 426.08571428571486) rotate(0 24.609375 16.80000000000001)"><text x="24.609375" y="27.0375" font-family="Cascadia, Segoe UI Emoji" font-size="28px" fill="#1e1e1e" text-anchor="middle" style="white-space: pre;" direction="ltr" dominant-baseline="alphabetic">...</text></g><g stroke-linecap="round" transform="translate(1217.3914622467894 485.3714285714292) rotate(0 147.857142857143 22)"><path d="M11 0 C93.06 -2.56, 178.07 -2.09, 284.71 0 M11 0 C70.44 0.98, 129.81 1.88, 284.71 0 M284.71 0 C290.33 -1.98, 296.76 2.49, 295.71 11 M284.71 0 C291.1 1.96, 297.13 3.06, 295.71 11 M295.71 11 C297.5 18.92, 294.94 28.05, 295.71 33 M295.71 11 C294.87 16.54, 295.44 21.09, 295.71 33 M295.71 33 C293.82 38.82, 291.11 43.39, 284.71 44 M295.71 33 C296.59 38.21, 291.64 44.64, 284.71 44 M284.71 44 C175.8 44.62, 71.51 44.32, 11 44 M284.71 44 C194.61 44.65, 106.69 44.48, 11 44 M11 44 C3.82 43.03, 0.94 38.91, 0 33 M11 44 C1.62 45.93, 0.29 38.18, 0 33 M0 33 C-0.99 28.48, 0.2 20.67, 0 11 M0 33 C-0.78 23.76, 0.71 16.51, 0 11 M0 11 C-1.18 5.38, 5.44 1.84, 11 0 M0 11 C0.77 4.58, 5.4 1.69, 11 0" stroke="#1e1e1e" stroke-width="2" fill="none"></path></g><g transform="translate(1275.0142301039323 490.57142857142924) rotate(0 90.234375 16.80000000000001)"><text x="90.234375" y="27.0375" font-family="Cascadia, Segoe UI Emoji" font-size="28px" fill="#1e1e1e" text-anchor="middle" style="white-space: pre;" direction="ltr" dominant-baseline="alphabetic">ControllerN</text></g><g transform="translate(1274.7707870235745 225.7142857142859) rotate(0 90.234375 16.80000000000001)"><text x="0" y="27.0375" font-family="Cascadia, Segoe UI Emoji" font-size="28px" fill="#1e1e1e" text-anchor="start" style="white-space: pre;" direction="ltr" dominant-baseline="alphabetic">Controllers</text></g><g stroke-linecap="round" transform="translate(1760.2486051039325 531.085714285715) rotate(0 147.857142857143 30.714285714285666)"><path d="M15.36 0 C88.51 1.17, 161.63 1.52, 280.36 0 M15.36 0 C94.8 0.41, 173.8 -0.08, 280.36 0 M280.36 0 C289.03 -0.68, 296.75 5.67, 295.71 15.36 M280.36 0 C289.15 -0.81, 297.94 2.88, 295.71 15.36 M295.71 15.36 C296.67 24.02, 293.74 32.24, 295.71 46.07 M295.71 15.36 C296.21 27.89, 296.36 39.26, 295.71 46.07 M295.71 46.07 C294.93 57.14, 290.93 62.31, 280.36 61.43 M295.71 46.07 C294.12 58.58, 291.55 63.55, 280.36 61.43 M280.36 61.43 C203.7 58.18, 124.41 59.54, 15.36 61.43 M280.36 61.43 C224.21 62.4, 167.27 62.01, 15.36 61.43 M15.36 61.43 C3.7 59.73, 0.76 56.34, 0 46.07 M15.36 61.43 C4.99 63.51, 0.2 56.99, 0 46.07 M0 46.07 C0.71 34.55, -0.29 24.65, 0 15.36 M0 46.07 C-0.54 36.09, 0.9 28.26, 0 15.36 M0 15.36 C-1.67 6.49, 4.57 0.69, 15.36 0 M0 15.36 C0.79 5.02, 3.73 1.26, 15.36 0" stroke="#1e1e1e" stroke-width="2" fill="none"></path></g><g transform="translate(1817.8713729610754 545.0000000000006) rotate(0 90.234375 16.799999999999955)"><text x="90.234375" y="27.0375" font-family="Cascadia, Segoe UI Emoji" font-size="28px" fill="#1e1e1e" text-anchor="middle" style="white-space: pre;" direction="ltr" dominant-baseline="alphabetic">CatsService</text></g><g stroke-linecap="round" transform="translate(1761.677176532504 608.2285714285723) rotate(0 147.857142857143 21.799999999999955)"><path d="M10.9 0 C72.95 0.5, 133.38 1.55, 284.81 0 M10.9 0 C92.56 -1.12, 173.62 -1.27, 284.81 0 M284.81 0 C293.11 0.55, 294.46 2.93, 295.71 10.9 M284.81 0 C294.31 -2.24, 295.62 2.85, 295.71 10.9 M295.71 10.9 C293.96 14.51, 297.54 21.32, 295.71 32.7 M295.71 10.9 C296.35 18.49, 295.41 26.02, 295.71 32.7 M295.71 32.7 C296.05 40.85, 290.7 45.57, 284.81 43.6 M295.71 32.7 C296.67 42.09, 291.94 41.38, 284.81 43.6 M284.81 43.6 C225.11 41.43, 164.57 42.02, 10.9 43.6 M284.81 43.6 C194.92 44.51, 103.79 43.88, 10.9 43.6 M10.9 43.6 C4.4 43.63, -0.11 41.78, 0 32.7 M10.9 43.6 C3.83 44.28, 1.35 38.76, 0 32.7 M0 32.7 C-0.51 27.51, 0.05 20.23, 0 10.9 M0 32.7 C0.91 25.21, -0.69 16.52, 0 10.9 M0 10.9 C-0.55 4.33, 4.32 -0.09, 10.9 0 M0 10.9 C-1.39 4.9, 4.81 -0.26, 10.9 0" stroke="#1e1e1e" stroke-width="2" fill="none"></path></g><g transform="translate(1843.909319389647 613.2285714285723) rotate(0 65.625 16.799999999999955)"><text x="65.625" y="27.0375" font-family="Cascadia, Segoe UI Emoji" font-size="28px" fill="#1e1e1e" text-anchor="middle" style="white-space: pre;" direction="ltr" dominant-baseline="alphabetic">Service2</text></g><g stroke-linecap="round" transform="translate(1760.2486051039323 666.8000000000008) rotate(0 147.857142857143 21.799999999999955)"><path d="M10.9 0 C85.64 1.08, 160.38 0.54, 284.81 0 M10.9 0 C105.36 0.05, 201.44 0.52, 284.81 0 M284.81 0 C290.83 -0.7, 297.65 1.68, 295.71 10.9 M284.81 0 C291.98 -0.78, 293.99 4.85, 295.71 10.9 M295.71 10.9 C297.22 17.6, 296.26 23.88, 295.71 32.7 M295.71 10.9 C295.44 19.38, 296 27.47, 295.71 32.7 M295.71 32.7 C294.33 41.94, 292.91 45.44, 284.81 43.6 M295.71 32.7 C295.57 37.75, 290.17 45.33, 284.81 43.6 M284.81 43.6 C227.43 43.86, 173.18 44.51, 10.9 43.6 M284.81 43.6 C189.95 42.85, 96.49 43.52, 10.9 43.6 M10.9 43.6 C3.52 45.41, 0.17 40.56, 0 32.7 M10.9 43.6 C4.98 42.39, -0.79 40.59, 0 32.7 M0 32.7 C0.16 25.83, 1.78 19.38, 0 10.9 M0 32.7 C-1 28.17, -0.44 22.61, 0 10.9 M0 10.9 C0.69 3.55, 2.43 1.1, 10.9 0 M0 10.9 C1.17 3.37, 4.45 -1.9, 10.9 0" stroke="#1e1e1e" stroke-width="2" fill="none"></path></g><g transform="translate(1883.4963729610754 671.8000000000008) rotate(0 24.609375 16.799999999999955)"><text x="24.609375" y="27.0375" font-family="Cascadia, Segoe UI Emoji" font-size="28px" fill="#1e1e1e" text-anchor="middle" style="white-space: pre;" direction="ltr" dominant-baseline="alphabetic">...</text></g><g stroke-linecap="round" transform="translate(1763.1057479610754 731.0857142857152) rotate(0 147.857142857143 22)"><path d="M11 0 C91.67 -0.9, 173.12 -1.34, 284.71 0 M11 0 C89.52 0.93, 166.75 0.45, 284.71 0 M284.71 0 C293.99 -1.95, 295.63 2.98, 295.71 11 M284.71 0 C290.32 1.22, 295.24 1.51, 295.71 11 M295.71 11 C296.65 16.99, 297.3 22.47, 295.71 33 M295.71 11 C295.79 18.56, 294.94 26.22, 295.71 33 M295.71 33 C296.55 42.18, 291.92 42.07, 284.71 44 M295.71 33 C293.81 42.06, 289.85 43.63, 284.71 44 M284.71 44 C205.59 45.73, 126.24 45.31, 11 44 M284.71 44 C204.07 42.21, 122.8 42.9, 11 44 M11 44 C3.84 44.59, 1.17 39.28, 0 33 M11 44 C2.88 44.63, -0.59 39.82, 0 33 M0 33 C1.72 24.4, -1.22 20.02, 0 11 M0 33 C-0.09 24.67, 0.53 15.6, 0 11 M0 11 C-1.21 4.77, 4.69 -0.23, 11 0 M0 11 C0.82 1.77, 2.32 1.81, 11 0" stroke="#1e1e1e" stroke-width="2" fill="none"></path></g><g transform="translate(1845.3378908182185 736.2857142857152) rotate(0 65.625 16.799999999999955)"><text x="65.625" y="27.0375" font-family="Cascadia, Segoe UI Emoji" font-size="28px" fill="#1e1e1e" text-anchor="middle" style="white-space: pre;" direction="ltr" dominant-baseline="alphabetic">ServiceN</text></g><g transform="translate(1846.1993584521465 471.4285714285719) rotate(0 65.625 16.80000000000001)"><text x="0" y="27.0375" font-family="Cascadia, Segoe UI Emoji" font-size="28px" fill="#1e1e1e" text-anchor="start" style="white-space: pre;" direction="ltr" dominant-baseline="alphabetic">Services</text></g><g stroke-linecap="round" transform="translate(1761.6771765325038 69.65714285714341) rotate(0 195.71428571428567 21.80000000000001)"><path d="M10.9 0 C142.74 0.83, 274.43 0.61, 380.53 0 M10.9 0 C143.67 -0.51, 275.66 -0.6, 380.53 0 M380.53 0 C388.33 0.75, 392.89 4.94, 391.43 10.9 M380.53 0 C386.5 0.82, 390.38 3.46, 391.43 10.9 M391.43 10.9 C389.47 16.19, 392.09 25.44, 391.43 32.7 M391.43 10.9 C391.08 16.94, 392.32 22.3, 391.43 32.7 M391.43 32.7 C391.34 41.09, 386.22 45.1, 380.53 43.6 M391.43 32.7 C391.2 37.71, 388.36 44.91, 380.53 43.6 M380.53 43.6 C262.33 42.43, 144.88 42.36, 10.9 43.6 M380.53 43.6 C235.11 43.83, 89.11 44.55, 10.9 43.6 M10.9 43.6 C5.61 42.47, 0.41 41.48, 0 32.7 M10.9 43.6 C4.82 45.77, -0.55 39.79, 0 32.7 M0 32.7 C1.38 25.09, -1.68 20.16, 0 10.9 M0 32.7 C0.68 25.19, 0.67 17.59, 0 10.9 M0 10.9 C0.81 4.1, 4.18 1.16, 10.9 0 M0 10.9 C0.54 2.16, 1.95 0.45, 10.9 0" stroke="#1e1e1e" stroke-width="2" fill="none"></path></g><g transform="translate(1793.3289622467896 74.65714285714341) rotate(0 164.0625 16.80000000000001)"><text x="164.0625" y="27.0375" font-family="Cascadia, Segoe UI Emoji" font-size="28px" fill="#1e1e1e" text-anchor="middle" style="white-space: pre;" direction="ltr" dominant-baseline="alphabetic">views/cats/view.html</text></g><g stroke-linecap="round" transform="translate(1763.1057479610752 128.22857142857185) rotate(0 195.71428571428567 21.80000000000001)"><path d="M10.9 0 C146.75 -0.91, 283.01 0.48, 380.53 0 M10.9 0 C116.61 -0.49, 222.95 -0.93, 380.53 0 M380.53 0 C388.05 -0.29, 389.47 4.39, 391.43 10.9 M380.53 0 C388.82 -0.61, 390.61 5.62, 391.43 10.9 M391.43 10.9 C392.49 18.76, 390.76 23.83, 391.43 32.7 M391.43 10.9 C391.2 17.8, 391.76 25.9, 391.43 32.7 M391.43 32.7 C389.43 39.68, 388.93 44.4, 380.53 43.6 M391.43 32.7 C389.14 41.16, 388.96 45.04, 380.53 43.6 M380.53 43.6 C303.82 42.65, 224.38 41.94, 10.9 43.6 M380.53 43.6 C285.64 41.43, 190.85 41.9, 10.9 43.6 M10.9 43.6 C4.41 41.63, 1.32 38.24, 0 32.7 M10.9 43.6 C4.41 42.5, 1.19 39.03, 0 32.7 M0 32.7 C-0.41 27.64, 0.95 23.36, 0 10.9 M0 32.7 C-0.52 24.88, 0.14 18.2, 0 10.9 M0 10.9 C-0.22 4.53, 4.15 0.79, 10.9 0 M0 10.9 C-1.36 1.54, 4.36 -1.15, 10.9 0" stroke="#1e1e1e" stroke-width="2" fill="none"></path></g><g transform="translate(1835.773158675361 133.22857142857185) rotate(0 123.046875 16.80000000000001)"><text x="123.046875" y="27.0375" font-family="Cascadia, Segoe UI Emoji" font-size="28px" fill="#1e1e1e" text-anchor="middle" style="white-space: pre;" direction="ltr" dominant-baseline="alphabetic">views/some/view</text></g><g stroke-linecap="round" transform="translate(1764.5343193896465 182.5142857142862) rotate(0 195.71428571428567 21.80000000000001)"><path d="M10.9 0 C126.78 0.84, 240.81 2.22, 380.53 0 M10.9 0 C86.94 1.95, 161.93 1.06, 380.53 0 M380.53 0 C387.29 0.48, 391.52 4.43, 391.43 10.9 M380.53 0 C387.48 -1.87, 392.36 4.41, 391.43 10.9 M391.43 10.9 C393.05 17.54, 393.32 23.29, 391.43 32.7 M391.43 10.9 C391.7 15.39, 391.76 21.99, 391.43 32.7 M391.43 32.7 C389.94 40.96, 389.46 43.63, 380.53 43.6 M391.43 32.7 C389.71 39.48, 388.57 41.94, 380.53 43.6 M380.53 43.6 C301.43 46.49, 219.87 45.61, 10.9 43.6 M380.53 43.6 C252.53 41.69, 123.48 42.51, 10.9 43.6 M10.9 43.6 C3.22 44.7, 1.13 39.15, 0 32.7 M10.9 43.6 C3.25 44.32, -1.02 41.91, 0 32.7 M0 32.7 C0.29 24.55, 1.28 15.49, 0 10.9 M0 32.7 C-0.21 24.39, -0.31 16.67, 0 10.9 M0 10.9 C-1.8 3.96, 3.23 1.59, 10.9 0 M0 10.9 C1.9 3.52, 5.47 1, 10.9 0" stroke="#1e1e1e" stroke-width="2" fill="none"></path></g><g transform="translate(1935.6392301039323 187.5142857142862) rotate(0 24.609375 16.80000000000001)"><text x="24.609375" y="27.0375" font-family="Cascadia, Segoe UI Emoji" font-size="28px" fill="#1e1e1e" text-anchor="middle" style="white-space: pre;" direction="ltr" dominant-baseline="alphabetic">...</text></g><g stroke-linecap="round" transform="translate(1765.9628908182178 243.94285714285763) rotate(0 195.71428571428567 21.80000000000001)"><path d="M10.9 0 C152.2 2.75, 294.59 3.13, 380.53 0 M10.9 0 C89.86 -0.18, 168.66 0.11, 380.53 0 M380.53 0 C388.34 0.46, 389.62 4.7, 391.43 10.9 M380.53 0 C386.97 2.04, 389.48 3.71, 391.43 10.9 M391.43 10.9 C391.68 17.69, 393.44 25.83, 391.43 32.7 M391.43 10.9 C392.07 15.74, 391.09 19.45, 391.43 32.7 M391.43 32.7 C391.54 41.17, 389.69 42.42, 380.53 43.6 M391.43 32.7 C392.44 38.49, 389.19 44.04, 380.53 43.6 M380.53 43.6 C252.94 42.67, 123.56 44.12, 10.9 43.6 M380.53 43.6 C242.76 43.43, 105.91 43.27, 10.9 43.6 M10.9 43.6 C2.04 41.79, 0.45 40.18, 0 32.7 M10.9 43.6 C4.69 44.12, -1.51 40.36, 0 32.7 M0 32.7 C1.76 28.31, -0.72 18.55, 0 10.9 M0 32.7 C0.17 24.6, -0.84 17.34, 0 10.9 M0 10.9 C-1.23 2.53, 3.39 -1.44, 10.9 0 M0 10.9 C1.8 3, 4.59 -1.31, 10.9 0" stroke="#1e1e1e" stroke-width="2" fill="none"></path></g><g transform="translate(1773.0053015325034 248.94285714285763) rotate(0 188.67187499999994 16.80000000000001)"><text x="188.671875" y="27.0375" font-family="Cascadia, Segoe UI Emoji" font-size="28px" fill="#1e1e1e" text-anchor="middle" style="white-space: pre;" direction="ltr" dominant-baseline="alphabetic">views/another/else.html</text></g><g transform="translate(1914.770787023575 10) rotate(0 41.015625 16.80000000000001)"><text x="0" y="27.0375" font-family="Cascadia, Segoe UI Emoji" font-size="28px" fill="#1e1e1e" text-anchor="start" style="white-space: pre;" direction="ltr" dominant-baseline="alphabetic">Views</text></g><g mask="url(#mask-utlhfiCO2PckHl8S4U9Fo)" stroke-linecap="round"><g transform="translate(806.9628908182176 358.0779906632738) rotate(0 204.02895389523908 -32.06759306729981)"><path d="M0.77 0.21 C68.81 -10.67, 339.81 -53.46, 407.29 -64.35" stroke="#1e1e1e" stroke-width="2.5" fill="none" stroke-dasharray="1.5 8"></path></g><g transform="translate(806.9628908182176 358.0779906632738) rotate(0 204.02895389523908 -32.06759306729981)"><path d="M385.43 -52.2 C390.55 -53.86, 396.44 -59.31, 407.29 -64.35" stroke="#1e1e1e" stroke-width="2.5" fill="none" stroke-dasharray="1.5 6"></path></g><g transform="translate(806.9628908182176 358.0779906632738) rotate(0 204.02895389523908 -32.06759306729981)"><path d="M382.74 -69.09 C388.59 -67, 395.08 -68.71, 407.29 -64.35" stroke="#1e1e1e" stroke-width="2.5" fill="none" stroke-dasharray="1.5 6"></path></g></g><mask id="mask-utlhfiCO2PckHl8S4U9Fo"><rect x="0" y="0" fill="#fff" width="1313.5343193896465" height="523.2515595225459"></rect><rect x="951.654855103932" y="313.49120623363785" fill="#000" width="117.1875" height="24" opacity="1"></rect></mask><g transform="translate(951.654855103932 313.49120623363774) rotate(0 59.336989609524636 12.519191362336244)"><text x="58.59375" y="19.3125" font-family="Cascadia, Segoe UI Emoji" font-size="20px" fill="#1e1e1e" text-anchor="middle" style="white-space: pre;" direction="ltr" dominant-baseline="alphabetic">getCatList</text></g><g stroke-linecap="round"><g transform="translate(1511.2486051039327 286.13122500182544) rotate(0 124.60524629038213 -104.77858632909363)"><path d="M0.26 0.09 C42.17 -34.41, 208.92 -173.1, 250.27 -207.97 M-1.06 -0.91 C40.86 -35.65, 207.8 -175.14, 249.77 -209.65" stroke="#1e1e1e" stroke-width="2" fill="none"></path></g><g transform="translate(1511.2486051039327 286.13122500182544) rotate(0 124.60524629038213 -104.77858632909363)"><path d="M237.15 -188.07 C240.03 -191.06, 243.85 -198.54, 249.77 -209.65 M237.15 -188.07 C240.66 -194.93, 244.92 -199.73, 249.77 -209.65" stroke="#1e1e1e" stroke-width="2" fill="none"></path></g><g transform="translate(1511.2486051039327 286.13122500182544) rotate(0 124.60524629038213 -104.77858632909363)"><path d="M226.23 -201.23 C231.22 -201.57, 237.24 -206.39, 249.77 -209.65 M226.23 -201.23 C232.79 -204.5, 240.04 -205.69, 249.77 -209.65" stroke="#1e1e1e" stroke-width="2" fill="none"></path></g></g><mask></mask><g stroke-linecap="round" transform="translate(287.39146224678905 269.63716637543814) rotate(0 30.714285714285722 28.262090906014123)"><path d="M32.91 0.35 C39.1 0.32, 48 3.23, 52.71 7.33 C57.42 11.44, 60.75 18.6, 61.14 24.96 C61.53 31.31, 58.92 40.44, 55.04 45.49 C51.16 50.54, 44.15 53.76, 37.84 55.24 C31.54 56.72, 23.01 56.91, 17.2 54.38 C11.39 51.84, 5.59 45.48, 2.96 40.04 C0.32 34.59, -0.4 27.56, 1.38 21.7 C3.17 15.84, 7.53 8.3, 13.68 4.89 C19.82 1.49, 33.84 1.59, 38.26 1.26 C42.67 0.94, 40.48 2.69, 40.16 2.95 M39.4 -0.12 C45.62 1.44, 53.23 7.95, 56.67 13.1 C60.11 18.24, 60.66 24.88, 60.04 30.77 C59.42 36.65, 57.64 44.22, 52.96 48.42 C48.28 52.61, 38.67 55.42, 31.96 55.94 C25.26 56.46, 17.81 55.16, 12.75 51.54 C7.7 47.93, 3.07 40.19, 1.61 34.26 C0.16 28.33, 1.19 21.24, 4.04 15.94 C6.89 10.64, 12.88 5.18, 18.71 2.47 C24.53 -0.23, 35.7 -0.3, 38.99 -0.27 C42.29 -0.24, 38.83 1.92, 38.48 2.64" stroke="#1e1e1e" stroke-width="2" fill="none"></path></g><g transform="translate(312.5399362794193 270.81960452482724) rotate(0 6.539984284857098 30.170067254241587)"><text x="0" y="42.286366263545" font-family="Virgil, Segoe UI Emoji" font-size="48.27210760678653px" fill="#1e1e1e" text-anchor="start" style="white-space: pre;" direction="ltr" dominant-baseline="alphabetic">1</text></g><g stroke-linecap="round" transform="translate(975.9628908182176 195.3514520897238) rotate(0 30.714285714285722 28.26209090601418)"><path d="M21.9 1.79 C27.79 -0.17, 36.26 0.59, 42.1 2.71 C47.94 4.84, 53.79 9.32, 56.95 14.56 C60.12 19.8, 62.29 28.26, 61.09 34.16 C59.89 40.06, 55.07 46.31, 49.75 49.95 C44.43 53.59, 35.65 55.93, 29.18 55.99 C22.71 56.05, 15.59 54.31, 10.93 50.32 C6.26 46.33, 2.14 38.34, 1.2 32.06 C0.26 25.79, 1 17.89, 5.3 12.68 C9.61 7.46, 22.61 2.64, 27.03 0.77 C31.46 -1.1, 31.99 1.2, 31.88 1.47 M36.69 1.72 C42.59 2.87, 48.91 7.12, 53.09 11.73 C57.27 16.35, 61.4 23.63, 61.76 29.41 C62.13 35.19, 59.65 41.78, 55.27 46.39 C50.89 51, 42 55.95, 35.47 57.06 C28.93 58.17, 21.93 56.17, 16.06 53.07 C10.19 49.97, 2.69 44.07, 0.23 38.49 C-2.23 32.9, -1.24 25.55, 1.31 19.55 C3.87 13.54, 9.88 5.59, 15.56 2.46 C21.23 -0.67, 31.82 1.2, 35.38 0.74 C38.94 0.29, 36.82 -0.82, 36.92 -0.28" stroke="#1e1e1e" stroke-width="2" fill="none"></path></g><g transform="translate(992.5399362794194 196.5338902391129) rotate(0 17.182586669921875 30.170067254241587)"><text x="0" y="42.286366263545" font-family="Virgil, Segoe UI Emoji" font-size="48.27210760678653px" fill="#1e1e1e" text-anchor="start" style="white-space: pre;" direction="ltr" dominant-baseline="alphabetic">2</text></g><g stroke-linecap="round" transform="translate(1684.534319389646 362.4943092325809) rotate(0 30.714285714285722 28.26209090601418)"><path d="M17.34 3.11 C22.77 0.39, 32.73 -0.49, 38.96 1.02 C45.19 2.52, 50.95 7.32, 54.73 12.14 C58.51 16.96, 61.94 24.08, 61.62 29.95 C61.3 35.82, 57.47 43.09, 52.8 47.35 C48.13 51.61, 40.17 54.81, 33.58 55.51 C26.98 56.21, 18.57 54.95, 13.24 51.54 C7.92 48.14, 3.45 40.83, 1.65 35.08 C-0.15 29.33, -0.68 22.6, 2.45 17.04 C5.58 11.48, 16.65 4.4, 20.42 1.71 C24.19 -0.98, 24.84 0.52, 25.07 0.89 M15.99 2.44 C21.14 -0.52, 29.94 -0.67, 36.54 0.95 C43.14 2.56, 51.61 7.44, 55.59 12.14 C59.57 16.83, 60.6 23.31, 60.41 29.1 C60.22 34.89, 58.79 42.46, 54.44 46.89 C50.1 51.32, 41.2 54.63, 34.32 55.68 C27.45 56.73, 18.7 56.52, 13.21 53.2 C7.72 49.88, 3.1 41.66, 1.37 35.77 C-0.35 29.88, 0.52 23.35, 2.88 17.86 C5.23 12.37, 13.05 4.96, 15.51 2.82 C17.96 0.67, 17.06 4.3, 17.59 5.01" stroke="#1e1e1e" stroke-width="2" fill="none"></path></g><g transform="translate(1701.1113648508478 363.67674738197) rotate(0 16.434471130371094 30.170067254241587)"><text x="0" y="42.286366263545" font-family="Virgil, Segoe UI Emoji" font-size="48.27210760678653px" fill="#1e1e1e" text-anchor="start" style="white-space: pre;" direction="ltr" dominant-baseline="alphabetic">3</text></g><g stroke-linecap="round" transform="translate(1454.5343193896463 588.2085949468666) rotate(0 30.714285714285722 28.262090906014123)"><path d="M16.17 3.81 C21.77 0.86, 31.56 -1.07, 38.2 0.17 C44.84 1.42, 52.14 6.19, 56.01 11.27 C59.89 16.36, 61.86 24.52, 61.47 30.67 C61.08 36.81, 58.08 43.82, 53.68 48.13 C49.27 52.44, 41.8 55.98, 35.04 56.52 C28.29 57.07, 18.76 54.87, 13.14 51.42 C7.52 47.96, 3.18 41.56, 1.31 35.8 C-0.56 30.04, -1.06 22.46, 1.91 16.87 C4.88 11.27, 15.8 4.72, 19.13 2.24 C22.46 -0.24, 21.7 1.64, 21.9 1.97 M19.71 3.06 C25.39 0.93, 34.13 0.91, 40.47 2.68 C46.81 4.45, 54.28 8.69, 57.75 13.7 C61.21 18.7, 62.13 26.93, 61.25 32.71 C60.38 38.48, 57.13 44.55, 52.49 48.36 C47.85 52.17, 40.25 55.32, 33.4 55.56 C26.56 55.79, 16.84 53.08, 11.42 49.79 C6 46.51, 1.99 41.8, 0.89 35.85 C-0.2 29.91, 1.96 19.75, 4.85 14.12 C7.74 8.49, 16.06 3.75, 18.24 2.07 C20.41 0.39, 17.45 3.33, 17.91 4.03" stroke="#1e1e1e" stroke-width="2" fill="none"></path></g><g transform="translate(1471.111364850848 589.3910330962559) rotate(0 15.445022583007812 30.17006725424153)"><text x="0" y="42.286366263545" font-family="Virgil, Segoe UI Emoji" font-size="48.27210760678653px" fill="#1e1e1e" text-anchor="start" style="white-space: pre;" direction="ltr" dominant-baseline="alphabetic">4</text></g><g stroke-linecap="round" transform="translate(1495.9628908182174 716.7800235182953) rotate(0 30.714285714285722 28.262090906014123)"><path d="M24.58 0.71 C30.48 -0.81, 39.2 0.51, 45.1 3.48 C51.01 6.44, 57.64 12.98, 60 18.5 C62.36 24.02, 61.66 30.86, 59.26 36.57 C56.86 42.29, 51.09 49.63, 45.6 52.79 C40.11 55.95, 32.72 56.42, 26.31 55.51 C19.91 54.61, 11.61 51.82, 7.18 47.37 C2.76 42.92, -0.06 35.08, -0.25 28.81 C-0.44 22.53, 0.76 14.57, 6.05 9.74 C11.33 4.91, 26.16 1.34, 31.47 -0.16 C36.79 -1.67, 37.78 0.26, 37.92 0.71 M22.52 -0.2 C28.77 -2.17, 38.87 0, 44.81 2.91 C50.75 5.83, 55.67 12.01, 58.16 17.3 C60.65 22.59, 61.65 29.09, 59.73 34.66 C57.81 40.23, 51.94 46.97, 46.63 50.71 C41.32 54.44, 34.35 57.37, 27.85 57.06 C21.36 56.76, 12.52 53.14, 7.66 48.89 C2.8 44.65, -1.18 37.88, -1.29 31.59 C-1.41 25.31, 2.85 16.09, 6.99 11.16 C11.12 6.22, 20.69 3.57, 23.5 1.97 C26.31 0.36, 24 1.43, 23.82 1.55" stroke="#1e1e1e" stroke-width="2" fill="none"></path></g><g transform="translate(1512.5399362794192 717.9624616676846) rotate(0 14.914100646972656 30.17006725424153)"><text x="0" y="42.286366263545" font-family="Virgil, Segoe UI Emoji" font-size="48.27210760678653px" fill="#1e1e1e" text-anchor="start" style="white-space: pre;" direction="ltr" dominant-baseline="alphabetic">5</text></g><g stroke-linecap="round" transform="translate(1538.8200336753605 469.63716637543814) rotate(0 30.714285714285722 28.262090906014123)"><path d="M41.85 1.38 C47.87 3.02, 54.2 8.86, 57.35 14.48 C60.49 20.09, 62.13 29.1, 60.72 35.07 C59.31 41.03, 53.99 46.71, 48.9 50.29 C43.81 53.87, 36.58 56.62, 30.19 56.56 C23.79 56.51, 15.41 54.17, 10.52 49.94 C5.62 45.72, 1.66 37.36, 0.81 31.21 C-0.04 25.06, 1.93 17.9, 5.41 13.04 C8.89 8.19, 15 3.71, 21.68 2.08 C28.37 0.46, 40.99 2.66, 45.53 3.3 C50.06 3.94, 49.1 5.36, 48.9 5.91 M45.43 3.91 C50.98 6.08, 56.26 10.7, 58.77 16.45 C61.27 22.2, 62.69 32.33, 60.45 38.39 C58.21 44.44, 50.93 49.78, 45.32 52.8 C39.71 55.82, 33.23 57.56, 26.78 56.52 C20.33 55.47, 11.3 51.04, 6.61 46.51 C1.92 41.97, -1.31 35.21, -1.35 29.29 C-1.39 23.37, 1.91 15.54, 6.37 10.99 C10.84 6.44, 19.04 3.5, 25.45 1.99 C31.86 0.49, 41.79 1.59, 44.83 1.97 C47.87 2.35, 43.7 3.56, 43.67 4.29" stroke="#1e1e1e" stroke-width="2" fill="none"></path></g><g transform="translate(1555.3970791365623 470.81960452482724) rotate(0 15.445022583007812 30.170067254241587)"><text x="0" y="42.286366263545" font-family="Virgil, Segoe UI Emoji" font-size="48.27210760678653px" fill="#1e1e1e" text-anchor="start" style="white-space: pre;" direction="ltr" dominant-baseline="alphabetic">6</text></g><g stroke-linecap="round" transform="translate(1551.6771765325034 96.78002351829525) rotate(0 30.714285714285722 28.262090906014123)"><path d="M41.19 1.56 C47.19 3.25, 55.13 9.9, 58.27 15.11 C61.4 20.32, 61.48 27.03, 60 32.85 C58.53 38.66, 54.49 46.13, 49.41 49.99 C44.33 53.84, 36.12 56, 29.51 55.99 C22.91 55.98, 14.77 53.84, 9.77 49.93 C4.77 46.03, 0.4 38.46, -0.5 32.56 C-1.39 26.65, 0.97 19.72, 4.38 14.52 C7.78 9.33, 13.15 3.34, 19.95 1.41 C26.74 -0.53, 40.2 2.1, 45.15 2.89 C50.11 3.68, 50.03 5.5, 49.69 6.17 M19.32 1.31 C25.06 -0.73, 33.93 1.02, 40.01 2.86 C46.09 4.7, 52.09 7.46, 55.79 12.37 C59.49 17.28, 63.06 26.22, 62.21 32.32 C61.36 38.42, 55.82 45.08, 50.7 49 C45.59 52.92, 38.29 55.55, 31.54 55.86 C24.79 56.18, 15.61 54.65, 10.21 50.89 C4.81 47.12, 0.19 39.47, -0.83 33.29 C-1.85 27.11, 0.69 18.81, 4.1 13.8 C7.51 8.79, 16.84 5.06, 19.61 3.25 C22.37 1.44, 20.63 2.74, 20.7 2.93" stroke="#1e1e1e" stroke-width="2" fill="none"></path></g><g transform="translate(1568.2542219937052 97.96246166768435) rotate(0 12.983474731445312 30.170067254241587)"><text x="0" y="42.286366263545" font-family="Virgil, Segoe UI Emoji" font-size="48.27210760678653px" fill="#1e1e1e" text-anchor="start" style="white-space: pre;" direction="ltr" dominant-baseline="alphabetic">7</text></g><g stroke-linecap="round" transform="translate(1667.3914622467892 242.49430923258092) rotate(0 30.714285714285722 28.26209090601418)"><path d="M21.28 1.46 C27.25 -0.25, 36.96 0.76, 43.08 3.2 C49.19 5.63, 54.88 10.68, 57.95 16.06 C61.02 21.44, 62.81 29.82, 61.49 35.48 C60.18 41.15, 55.3 46.56, 50.07 50.07 C44.84 53.58, 36.91 56.71, 30.12 56.56 C23.33 56.41, 14.18 53.33, 9.34 49.17 C4.49 45.02, 1.66 37.62, 1.04 31.64 C0.42 25.66, 1.71 18.34, 5.61 13.3 C9.51 8.26, 20.73 3.46, 24.45 1.39 C28.18 -0.68, 27.74 0.6, 27.95 0.85 M16.12 4.56 C21.4 1.62, 31.5 -1.22, 37.78 -0.07 C44.06 1.08, 49.73 6.41, 53.8 11.45 C57.87 16.49, 62.08 24.38, 62.21 30.15 C62.33 35.92, 59.09 41.7, 54.56 46.06 C50.02 50.43, 41.8 55.56, 34.97 56.33 C28.15 57.1, 19.07 54.16, 13.61 50.7 C8.15 47.24, 4.18 41.07, 2.23 35.56 C0.27 30.04, -0.72 22.77, 1.86 17.62 C4.44 12.47, 15.36 6.93, 17.71 4.64 C20.05 2.34, 15.72 3.74, 15.93 3.84" stroke="#1e1e1e" stroke-width="2" fill="none"></path></g><g transform="translate(1683.968507707991 243.67674738197002) rotate(0 18.461631774902344 30.170067254241587)"><text x="0" y="42.286366263545" font-family="Virgil, Segoe UI Emoji" font-size="48.27210760678653px" fill="#1e1e1e" text-anchor="start" style="white-space: pre;" direction="ltr" dominant-baseline="alphabetic">8</text></g><g stroke-linecap="round" transform="translate(1003.1057479610749 392.4943092325809) rotate(0 30.714285714285722 28.26209090601418)"><path d="M30.33 0.38 C36.38 0.02, 45 3.12, 50.08 7.09 C55.16 11.05, 59.58 18.19, 60.82 24.18 C62.07 30.17, 60.93 37.77, 57.54 43.02 C54.14 48.28, 46.54 53.71, 40.48 55.71 C34.41 57.7, 27.14 57.31, 21.17 54.96 C15.21 52.61, 8.25 46.73, 4.68 41.6 C1.11 36.48, -1.31 29.96, -0.24 24.23 C0.84 18.5, 4.62 11.07, 11.15 7.22 C17.68 3.38, 33.49 1.89, 38.96 1.16 C44.43 0.43, 44.21 2.34, 43.98 2.85 M28.7 -0.21 C34.9 -0.71, 44.79 3.02, 50.02 6.67 C55.25 10.32, 58.75 16.03, 60.08 21.69 C61.4 27.35, 60.71 34.93, 57.96 40.62 C55.22 46.3, 49.73 53.32, 43.6 55.79 C37.47 58.27, 27.71 57.38, 21.18 55.48 C14.65 53.57, 7.78 49.62, 4.4 44.38 C1.02 39.14, -0.23 30.12, 0.91 24.05 C2.06 17.97, 6.59 11.86, 11.26 7.93 C15.94 3.99, 26.14 1.82, 28.96 0.43 C31.78 -0.95, 28.19 -0.91, 28.19 -0.37" stroke="#1e1e1e" stroke-width="2" fill="none"></path></g><g transform="translate(1019.6827934222767 393.67674738197) rotate(0 14.696907043457031 30.170067254241587)"><text x="0" y="42.286366263545" font-family="Virgil, Segoe UI Emoji" font-size="48.27210760678653px" fill="#1e1e1e" text-anchor="start" style="white-space: pre;" direction="ltr" dominant-baseline="alphabetic">9</text></g><g stroke-linecap="round" transform="translate(301.6771765325035 512.4943092325808) rotate(0 30.714285714285722 28.262090906014123)"><path d="M20.63 0.95 C26.3 -1.54, 35.5 -1.09, 41.69 1.07 C47.89 3.22, 54.46 8.35, 57.78 13.9 C61.11 19.45, 63.03 28.38, 61.65 34.35 C60.26 40.33, 54.85 46.02, 49.48 49.74 C44.1 53.45, 36 56.55, 29.41 56.66 C22.83 56.77, 14.96 54.34, 9.97 50.39 C4.98 46.44, 0.38 39.13, -0.52 32.96 C-1.42 26.78, 0.28 18.57, 4.55 13.35 C8.83 8.12, 21.43 3.87, 25.14 1.63 C28.85 -0.61, 26.73 -0.49, 26.82 -0.11 M17.26 4.06 C22.75 1.11, 32.75 -1.72, 38.91 -0.35 C45.06 1.02, 50.2 7.01, 54.19 12.28 C58.18 17.56, 63.02 25.41, 62.85 31.31 C62.68 37.2, 58.18 43.28, 53.19 47.66 C48.21 52.04, 39.57 56.75, 32.95 57.61 C26.33 58.47, 18.6 56.27, 13.5 52.8 C8.39 49.33, 4.14 42.89, 2.33 36.81 C0.53 30.72, 0.35 21.88, 2.68 16.29 C5.02 10.71, 13.71 5.54, 16.34 3.29 C18.96 1.03, 18.28 2.48, 18.43 2.76" stroke="#1e1e1e" stroke-width="2" fill="none"></path></g><g transform="translate(311.1113648508482 515.1053188105415) rotate(0 23.143402099609375 30.17006725424153)"><text x="0" y="42.286366263545" font-family="Virgil, Segoe UI Emoji" font-size="48.27210760678653px" fill="#1e1e1e" text-anchor="start" style="white-space: pre;" direction="ltr" dominant-baseline="alphabetic">10</text></g><g mask="url(#mask-hF7Z-rqsR5FWTxp4xA_TI)" stroke-linecap="round"><g transform="translate(1210.2486051039318 335.37142857142885) rotate(0 -196.9990564509694 32.03176954149137)"><path d="M-0.18 0.02 C-65.83 10.75, -328.11 53.72, -393.81 64.05" stroke="#1e1e1e" stroke-width="2.5" fill="none" stroke-dasharray="1.5 8"></path></g><g transform="translate(1210.2486051039318 335.37142857142885) rotate(0 -196.9990564509694 32.03176954149137)"><path d="M-371.98 51.87 C-378.66 56.34, -383.37 59.08, -393.81 64.05" stroke="#1e1e1e" stroke-width="2.5" fill="none" stroke-dasharray="1.5 6"></path></g><g transform="translate(1210.2486051039318 335.37142857142885) rotate(0 -196.9990564509694 32.03176954149137)"><path d="M-369.26 68.76 C-376.72 68.07, -382.26 65.64, -393.81 64.05" stroke="#1e1e1e" stroke-width="2.5" fill="none" stroke-dasharray="1.5 6"></path></g></g><mask id="mask-hF7Z-rqsR5FWTxp4xA_TI"><rect x="0" y="0" fill="#fff" width="1704.534319389646" height="498.22857142857174"></rect><rect x="931.0744979610748" y="354.8000000000003" fill="#000" width="164.0625" height="24" opacity="1"></rect></mask><g transform="translate(931.0744979610748 354.8000000000004) rotate(0 82.17505069188772 12.603198112919927)"><text x="82.03125" y="19.3125" font-family="Cascadia, Segoe UI Emoji" font-size="20px" fill="#1e1e1e" text-anchor="middle" style="white-space: pre;" direction="ltr" dominant-baseline="alphabetic">rendered page </text></g><g stroke-linecap="round"><g transform="translate(1749.1343193896464 128.41089654856955) rotate(0 -111.38520686951074 99.11022487541612)"><path d="M1.17 0.24 C-36 33.2, -186.73 165.8, -223.94 198.9 M0.33 -0.68 C-36.37 32.49, -184.53 164.43, -221.64 197.38" stroke="#1e1e1e" stroke-width="2" fill="none"></path></g><g transform="translate(1749.1343193896464 128.41089654856955) rotate(0 -111.38520686951074 99.11022487541612)"><path d="M-209.77 175.38 C-211.81 179.11, -212.94 187.05, -221.64 197.38 M-209.77 175.38 C-213.9 184.48, -218.25 192.89, -221.64 197.38" stroke="#1e1e1e" stroke-width="2" fill="none"></path></g><g transform="translate(1749.1343193896464 128.41089654856955) rotate(0 -111.38520686951074 99.11022487541612)"><path d="M-198.4 188.16 C-203.1 189.15, -206.75 194.24, -221.64 197.38 M-198.4 188.16 C-207.05 192.17, -215.84 195.59, -221.64 197.38" stroke="#1e1e1e" stroke-width="2" fill="none"></path></g></g><mask></mask><g transform="translate(1564.924944389646 230.51428571428596) rotate(318.36646066342996 99.609375 12)"><text x="0" y="19.3125" font-family="Cascadia, Segoe UI Emoji" font-size="20px" fill="#1e1e1e" text-anchor="start" style="white-space: pre;" direction="ltr" dominant-baseline="alphabetic">returns cats view</text></g><g transform="translate(1574.9249443896456 407.6571428571426) rotate(39.559667968995846 99.609375 12)"><text x="0" y="19.3125" font-family="Cascadia, Segoe UI Emoji" font-size="20px" fill="#1e1e1e" text-anchor="start" style="white-space: pre;" direction="ltr" dominant-baseline="alphabetic">get cat list data</text></g><g transform="translate(1510.55267966192 455.3539870572207) rotate(39.559667968995846 93.75 12)"><text x="0" y="19.3125" font-family="Cascadia, Segoe UI Emoji" font-size="20px" fill="#1e1e1e" text-anchor="start" style="white-space: pre;" direction="ltr" dominant-baseline="alphabetic">returns cat list</text></g><g transform="translate(1535.5053015325034 150.51428571428607) rotate(320.4403320310056 76.171875 12)"><text x="0" y="19.3125" font-family="Cascadia, Segoe UI Emoji" font-size="20px" fill="#1e1e1e" text-anchor="start" style="white-space: pre;" direction="ltr" dominant-baseline="alphabetic">get cats view</text></g><g stroke-linecap="round"><g transform="translate(1515.9628908182176 323.9428571428574) rotate(0 126.71671890484436 107.51397002743823)"><path d="M0.17 0.62 C42.75 36.43, 212.13 179.41, 254.63 215.13 M-1.19 -0.1 C41.33 35.35, 211.19 177.94, 253.86 213.45" stroke="#1e1e1e" stroke-width="2" fill="none"></path></g><g transform="translate(1515.9628908182176 323.9428571428574) rotate(0 126.71671890484436 107.51397002743823)"><path d="M230.35 204.94 C236.8 207.42, 242.56 210.22, 253.86 213.45 M230.35 204.94 C238.02 208.54, 246.59 211.16, 253.86 213.45" stroke="#1e1e1e" stroke-width="2" fill="none"></path></g><g transform="translate(1515.9628908182176 323.9428571428574) rotate(0 126.71671890484436 107.51397002743823)"><path d="M241.32 191.82 C245.28 197.33, 248.53 203.14, 253.86 213.45 M241.32 191.82 C245.16 200.14, 249.83 207.42, 253.86 213.45" stroke="#1e1e1e" stroke-width="2" fill="none"></path></g></g><mask></mask><g stroke-linecap="round"><g transform="translate(1750.2486051039318 565.371428571429) rotate(0 -124.1310423474439 -113.09150191699825)"><path d="M0.46 -0.18 C-40.68 -37.78, -206.74 -188.34, -248.05 -226 M-0.75 -1.32 C-41.91 -38.71, -207.6 -187.32, -248.73 -224.61" stroke="#1e1e1e" stroke-width="2" fill="none"></path></g><g transform="translate(1750.2486051039318 565.371428571429) rotate(0 -124.1310423474439 -113.09150191699825)"><path d="M-225.55 -215.24 C-230.54 -216.19, -235.43 -216.99, -248.73 -224.61 M-225.55 -215.24 C-232.19 -217.34, -238.11 -219.87, -248.73 -224.61" stroke="#1e1e1e" stroke-width="2" fill="none"></path></g><g transform="translate(1750.2486051039318 565.371428571429) rotate(0 -124.1310423474439 -113.09150191699825)"><path d="M-237 -202.53 C-239.62 -206.12, -242.18 -209.5, -248.73 -224.61 M-237 -202.53 C-240.59 -207.98, -243.51 -213.84, -248.73 -224.61" stroke="#1e1e1e" stroke-width="2" fill="none"></path></g></g><mask></mask><g stroke-linecap="round" transform="translate(1030.2486051039323 643.9428571428574) rotate(0 216.4285714285715 167.14285714285722)"><path d="M32 0 C172.11 1.72, 309.68 1.15, 400.86 0 M32 0 C136.77 -1.72, 242.34 -1.11, 400.86 0 M400.86 0 C422.06 -0.11, 433.94 9.62, 432.86 32 M400.86 0 C420.04 -1.66, 431.47 8.64, 432.86 32 M432.86 32 C434.15 116.72, 433.25 203.21, 432.86 302.29 M432.86 32 C435.64 92.72, 435.53 155.08, 432.86 302.29 M432.86 302.29 C433.67 324.66, 423.54 334.28, 400.86 334.29 M432.86 302.29 C430.93 322.02, 420.02 334.85, 400.86 334.29 M400.86 334.29 C258.23 333.91, 114.33 331.52, 32 334.29 M400.86 334.29 C285.57 334.84, 169.01 333.99, 32 334.29 M32 334.29 C9.35 336.26, -0.49 325.58, 0 302.29 M32 334.29 C12.03 333.32, -0.34 322.68, 0 302.29 M0 302.29 C0.29 208.17, 0.41 114.89, 0 32 M0 302.29 C-1.24 237.99, -1.07 173.94, 0 32 M0 32 C1.5 11.66, 10.3 -1.47, 32 0 M0 32 C-1.78 11.35, 11.47 -1.45, 32 0" stroke="#1e1e1e" stroke-width="2" fill="none"></path></g><g stroke-linecap="round" transform="translate(1083.1057479610752 729.6571428571432) rotate(0 167.1428571428571 29.28571428571422)"><path d="M14.64 0 C135.03 2.81, 256.93 3.07, 319.64 0 M14.64 0 C111.05 -1.36, 207.89 -1.13, 319.64 0 M319.64 0 C327.95 1.43, 334.23 6.11, 334.29 14.64 M319.64 0 C328.77 0.73, 335.63 3.29, 334.29 14.64 M334.29 14.64 C334.29 23.95, 334.17 32.54, 334.29 43.93 M334.29 14.64 C333.37 24.02, 333.1 32.67, 334.29 43.93 M334.29 43.93 C334.52 52.26, 328.9 59.77, 319.64 58.57 M334.29 43.93 C332.95 53.44, 330.86 56.32, 319.64 58.57 M319.64 58.57 C236.13 58.71, 153.02 58.16, 14.64 58.57 M319.64 58.57 C257.46 57.02, 194.47 57.46, 14.64 58.57 M14.64 58.57 C6.39 59.35, 1.83 54.39, 0 43.93 M14.64 58.57 C6.51 59.63, -0.86 55.82, 0 43.93 M0 43.93 C2 35.34, 0.22 21.53, 0 14.64 M0 43.93 C0.84 38.13, 0.57 31.16, 0 14.64 M0 14.64 C-0.27 5.77, 3 -0.86, 14.64 0 M0 14.64 C2.15 4.13, 6.02 0.65, 14.64 0" stroke="#1e1e1e" stroke-width="2" fill="none"></path></g><g transform="translate(1197.5142301039323 746.9428571428574) rotate(0 52.734375 12)"><text x="52.734375" y="19.3125" font-family="Cascadia, Segoe UI Emoji" font-size="20px" fill="#1e1e1e" text-anchor="middle" style="white-space: pre;" direction="ltr" dominant-baseline="alphabetic">CatsModel</text></g><g stroke-linecap="round" transform="translate(1083.1057479610752 805.3714285714287) rotate(0 167.1428571428571 29.28571428571422)"><path d="M14.64 0 C75.82 0.62, 140.78 2.21, 319.64 0 M14.64 0 C126.5 -0.95, 239.17 -0.46, 319.64 0 M319.64 0 C328.12 -1.8, 334.85 5.79, 334.29 14.64 M319.64 0 C328.18 -2.21, 336.36 4.73, 334.29 14.64 M334.29 14.64 C333.59 26.38, 335.16 36.68, 334.29 43.93 M334.29 14.64 C334.92 23.32, 334.99 33.95, 334.29 43.93 M334.29 43.93 C334.4 53.16, 330.49 58.8, 319.64 58.57 M334.29 43.93 C335.45 53.44, 327.17 58.49, 319.64 58.57 M319.64 58.57 C212.88 59.22, 105.58 58.84, 14.64 58.57 M319.64 58.57 C226.06 59.81, 133.11 60.94, 14.64 58.57 M14.64 58.57 C6.34 58.09, -0.04 54.34, 0 43.93 M14.64 58.57 C6.78 56.68, 0.97 52.74, 0 43.93 M0 43.93 C-0.55 39.35, 1.44 31.78, 0 14.64 M0 43.93 C0.95 33.96, -0.56 24.38, 0 14.64 M0 14.64 C0.63 4.64, 4.46 0.13, 14.64 0 M0 14.64 C-1.04 2.62, 6.65 -0.26, 14.64 0" stroke="#1e1e1e" stroke-width="2" fill="none"></path></g><g transform="translate(1156.4986051039323 822.657142857143) rotate(0 93.75 12)"><text x="93.75" y="19.3125" font-family="Cascadia, Segoe UI Emoji" font-size="20px" fill="#1e1e1e" text-anchor="middle" style="white-space: pre;" direction="ltr" dominant-baseline="alphabetic">Some other model</text></g><g stroke-linecap="round" transform="translate(1083.1057479610752 876.8000000000001) rotate(0 167.1428571428571 29.28571428571422)"><path d="M14.64 0 C95.29 2.92, 177.4 2.57, 319.64 0 M14.64 0 C124.75 0.75, 232.87 0.9, 319.64 0 M319.64 0 C331.27 1.94, 335.68 5.16, 334.29 14.64 M319.64 0 C328.01 -2.23, 333.99 3.97, 334.29 14.64 M334.29 14.64 C334.9 22.9, 332.82 30.29, 334.29 43.93 M334.29 14.64 C334.04 24.09, 333.75 32.82, 334.29 43.93 M334.29 43.93 C332.88 54.43, 329.42 58.35, 319.64 58.57 M334.29 43.93 C336.25 53.41, 329.14 57.48, 319.64 58.57 M319.64 58.57 C234.9 60.55, 151.82 59.05, 14.64 58.57 M319.64 58.57 C211.28 57, 101.5 57.48, 14.64 58.57 M14.64 58.57 C5.07 58.01, -1.87 52.64, 0 43.93 M14.64 58.57 C5.64 57.77, -2.11 54.14, 0 43.93 M0 43.93 C-0.44 35.44, 1.21 27.84, 0 14.64 M0 43.93 C0.31 35.49, 0.31 26.59, 0 14.64 M0 14.64 C0.69 6.03, 5.9 1.81, 14.64 0 M0 14.64 C1.64 6.37, 5.51 -2.2, 14.64 0" stroke="#1e1e1e" stroke-width="2" fill="none"></path></g><g transform="translate(1209.2329801039323 894.0857142857143) rotate(0 41.015625 12)"><text x="41.015625" y="19.3125" font-family="Cascadia, Segoe UI Emoji" font-size="20px" fill="#1e1e1e" text-anchor="middle" style="white-space: pre;" direction="ltr" dominant-baseline="alphabetic">Model N</text></g><g transform="translate(1194.2999443896465 598.5714285714292) rotate(0 49.21875 16.799999999999955)"><text x="0" y="27.0375" font-family="Cascadia, Segoe UI Emoji" font-size="28px" fill="#1e1e1e" text-anchor="start" style="white-space: pre;" direction="ltr" dominant-baseline="alphabetic">Models</text></g><g transform="translate(1141.4428015325034 680.0000000000008) rotate(0 106.640625 16.799999999999955)"><text x="0" y="27.0375" font-family="Cascadia, Segoe UI Emoji" font-size="28px" fill="#1e1e1e" text-anchor="start" style="white-space: pre;" direction="ltr" dominant-baseline="alphabetic">Prisma Models</text></g><g stroke-linecap="round"><g transform="translate(1748.8200336753607 568.8153239911902) rotate(0 -136.99876454018312 62.13240829433619)"><path d="M-0.43 -0.46 C-46.33 20.25, -228.97 103.94, -274.49 124.64 M1.54 -1.75 C-44.61 19.11, -229.63 104.99, -275.54 126.02" stroke="#1e1e1e" stroke-width="2" fill="none"></path></g><g transform="translate(1748.8200336753607 568.8153239911902) rotate(0 -136.99876454018312 62.13240829433619)"><path d="M-257.79 108.41 C-265.16 114.61, -271.54 122.75, -275.54 126.02 M-257.79 108.41 C-261.15 112.63, -264.57 116.18, -275.54 126.02" stroke="#1e1e1e" stroke-width="2" fill="none"></path></g><g transform="translate(1748.8200336753607 568.8153239911902) rotate(0 -136.99876454018312 62.13240829433619)"><path d="M-250.63 123.94 C-260.73 124.29, -269.78 126.62, -275.54 126.02 M-250.63 123.94 C-255.32 124.97, -260.19 125.4, -275.54 126.02" stroke="#1e1e1e" stroke-width="2" fill="none"></path></g></g><mask></mask><g stroke-linecap="round"><g transform="translate(1490.2486051039323 716.177862329063) rotate(0 134.8338872574363 -67.26037731580743)"><path d="M-1.07 -0.49 C43.55 -22.69, 223.47 -111.82, 268.36 -134.03 M0.57 -1.8 C45.52 -23.73, 226.31 -110.84, 270.74 -132.61" stroke="#1e1e1e" stroke-width="2" fill="none"></path></g><g transform="translate(1490.2486051039323 716.177862329063) rotate(0 134.8338872574363 -67.26037731580743)"><path d="M253.34 -114.66 C258.82 -121.93, 265.44 -128.4, 270.74 -132.61 M253.34 -114.66 C258.72 -119.34, 264.75 -125.85, 270.74 -132.61" stroke="#1e1e1e" stroke-width="2" fill="none"></path></g><g transform="translate(1490.2486051039323 716.177862329063) rotate(0 134.8338872574363 -67.26037731580743)"><path d="M245.87 -130.04 C253.89 -131.79, 263.16 -132.8, 270.74 -132.61 M245.87 -130.04 C253.65 -130.09, 261.97 -131.9, 270.74 -132.61" stroke="#1e1e1e" stroke-width="2" fill="none"></path></g></g><mask></mask><g transform="translate(1488.8200336753607 592.5142857142863) rotate(333.90619451882293 111.328125 12)"><text x="0" y="19.3125" font-family="Cascadia, Segoe UI Emoji" font-size="20px" fill="#1e1e1e" text-anchor="start" style="white-space: pre;" direction="ltr" dominant-baseline="alphabetic">select * from Cats;</text></g><g transform="translate(1571.1036954911585 669.4349106715457) rotate(333.90619451882293 46.875 12)"><text x="0" y="19.3125" font-family="Cascadia, Segoe UI Emoji" font-size="20px" fill="#1e1e1e" text-anchor="start" style="white-space: pre;" direction="ltr" dominant-baseline="alphabetic">cat list</text></g></svg>